<?xml version="1.0" encoding="UTF-8" standalone="no"?><svg xmlns="http://www.w3.org/2000/svg" xmlns:xlink="http://www.w3.org/1999/xlink" contentScriptType="application/ecmascript" contentStyleType="text/css" height="534px" preserveAspectRatio="none" style="width:483px;height:534px;" version="1.1" viewBox="0 0 483 534" width="483px" zoomAndPan="magnify"><defs><filter height="300%" id="f1caatsa41b84m" width="300%" x="-1" y="-1"><feGaussianBlur result="blurOut" stdDeviation="2.0"/><feColorMatrix in="blurOut" result="blurOut2" type="matrix" values="0 0 0 0 0 0 0 0 0 0 0 0 0 0 0 0 0 0 .4 0"/><feOffset dx="4.0" dy="4.0" in="blurOut2" result="blurOut3"/><feBlend in="SourceGraphic" in2="blurOut3" mode="normal"/></filter></defs><g><text fill="#000000" font-family="sans-serif" font-size="14" font-weight="bold" lengthAdjust="spacingAndGlyphs" textLength="208" x="133" y="22.9951">shadow socks 代理工作流程</text><line style="stroke: #A80036; stroke-width: 1.0; stroke-dasharray: 5.0,5.0;" x1="45" x2="45" y1="68.5938" y2="522.3203"/><line style="stroke: #A80036; stroke-width: 1.0; stroke-dasharray: 5.0,5.0;" x1="196.5" x2="196.5" y1="68.5938" y2="522.3203"/><line style="stroke: #A80036; stroke-width: 1.0; stroke-dasharray: 5.0,5.0;" x1="408" x2="408" y1="68.5938" y2="522.3203"/><rect fill="#FEFECE" filter="url(#f1caatsa41b84m)" height="30.2969" style="stroke: #A80036; stroke-width: 1.5;" width="70" x="8" y="33.2969"/><text fill="#000000" font-family="sans-serif" font-size="14" lengthAdjust="spacingAndGlyphs" textLength="56" x="15" y="53.292">browser</text><rect fill="#FEFECE" filter="url(#f1caatsa41b84m)" height="30.2969" style="stroke: #A80036; stroke-width: 1.5;" width="93" x="148.5" y="33.2969"/><text fill="#000000" font-family="sans-serif" font-size="14" lengthAdjust="spacingAndGlyphs" textLength="79" x="155.5" y="53.292">local-server</text><rect fill="#FEFECE" filter="url(#f1caatsa41b84m)" height="30.2969" style="stroke: #A80036; stroke-width: 1.5;" width="112" x="350" y="33.2969"/><text fill="#000000" font-family="sans-serif" font-size="14" lengthAdjust="spacingAndGlyphs" textLength="98" x="357" y="53.292">remote-server</text><rect fill="#EEEEEE" filter="url(#f1caatsa41b84m)" height="3" style="stroke: #EEEEEE; stroke-width: 1.0;" width="468" x="3" y="99.1602"/><line style="stroke: #000000; stroke-width: 1.0;" x1="3" x2="471" y1="99.1602" y2="99.1602"/><line style="stroke: #000000; stroke-width: 1.0;" x1="3" x2="471" y1="102.1602" y2="102.1602"/><rect fill="#EEEEEE" filter="url(#f1caatsa41b84m)" height="23.1328" style="stroke: #000000; stroke-width: 2.0;" width="161" x="156.5" y="88.5938"/><text fill="#000000" font-family="sans-serif" font-size="13" font-weight="bold" lengthAdjust="spacingAndGlyphs" textLength="142" x="162.5" y="104.6606">socks5 hand shake</text><polygon fill="#A80036" points="185,138.8594,195,142.8594,185,146.8594,189,142.8594" style="stroke: #A80036; stroke-width: 1.0;"/><line style="stroke: #A80036; stroke-width: 1.0;" x1="45" x2="191" y1="142.8594" y2="142.8594"/><text fill="#000000" font-family="sans-serif" font-size="13" lengthAdjust="spacingAndGlyphs" textLength="86" x="52" y="137.7935">initial request</text><polygon fill="#A80036" points="56,167.9922,46,171.9922,56,175.9922,52,171.9922" style="stroke: #A80036; stroke-width: 1.0;"/><line style="stroke: #A80036; stroke-width: 1.0;" x1="50" x2="196" y1="171.9922" y2="171.9922"/><text fill="#000000" font-family="sans-serif" font-size="13" lengthAdjust="spacingAndGlyphs" textLength="96" x="62" y="166.9263">initial response</text><polygon fill="#A80036" points="185,197.125,195,201.125,185,205.125,189,201.125" style="stroke: #A80036; stroke-width: 1.0;"/><line style="stroke: #A80036; stroke-width: 1.0;" x1="45" x2="191" y1="201.125" y2="201.125"/><text fill="#000000" font-family="sans-serif" font-size="13" lengthAdjust="spacingAndGlyphs" textLength="118" x="52" y="196.0591">command request</text><polygon fill="#A80036" points="56,226.2578,46,230.2578,56,234.2578,52,230.2578" style="stroke: #A80036; stroke-width: 1.0;"/><line style="stroke: #A80036; stroke-width: 1.0;" x1="50" x2="196" y1="230.2578" y2="230.2578"/><text fill="#000000" font-family="sans-serif" font-size="13" lengthAdjust="spacingAndGlyphs" textLength="128" x="62" y="225.1919">command response</text><rect fill="#EEEEEE" filter="url(#f1caatsa41b84m)" height="3" style="stroke: #EEEEEE; stroke-width: 1.0;" width="468" x="3" y="258.8242"/><line style="stroke: #000000; stroke-width: 1.0;" x1="3" x2="471" y1="258.8242" y2="258.8242"/><line style="stroke: #000000; stroke-width: 1.0;" x1="3" x2="471" y1="261.8242" y2="261.8242"/><rect fill="#EEEEEE" filter="url(#f1caatsa41b84m)" height="23.1328" style="stroke: #000000; stroke-width: 2.0;" width="163" x="155.5" y="248.2578"/><text fill="#000000" font-family="sans-serif" font-size="13" font-weight="bold" lengthAdjust="spacingAndGlyphs" textLength="144" x="161.5" y="264.3247">remote hand shake</text><polygon fill="#A80036" points="396,298.5234,406,302.5234,396,306.5234,400,302.5234" style="stroke: #A80036; stroke-width: 1.0;"/><line style="stroke: #A80036; stroke-width: 1.0;" x1="197" x2="402" y1="302.5234" y2="302.5234"/><text fill="#000000" font-family="sans-serif" font-size="13" lengthAdjust="spacingAndGlyphs" textLength="187" x="204" y="297.4575">encrpted destination address</text><rect fill="#EEEEEE" filter="url(#f1caatsa41b84m)" height="3" style="stroke: #EEEEEE; stroke-width: 1.0;" width="468" x="3" y="331.0898"/><line style="stroke: #000000; stroke-width: 1.0;" x1="3" x2="471" y1="331.0898" y2="331.0898"/><line style="stroke: #000000; stroke-width: 1.0;" x1="3" x2="471" y1="334.0898" y2="334.0898"/><rect fill="#EEEEEE" filter="url(#f1caatsa41b84m)" height="23.1328" style="stroke: #000000; stroke-width: 2.0;" width="84" x="195" y="320.5234"/><text fill="#000000" font-family="sans-serif" font-size="13" font-weight="bold" lengthAdjust="spacingAndGlyphs" textLength="65" x="201" y="336.5903">tcp relay</text><polygon fill="#A80036" points="185,370.7891,195,374.7891,185,378.7891,189,374.7891" style="stroke: #A80036; stroke-width: 1.0;"/><line style="stroke: #A80036; stroke-width: 1.0;" x1="45" x2="191" y1="374.7891" y2="374.7891"/><text fill="#000000" font-family="sans-serif" font-size="13" lengthAdjust="spacingAndGlyphs" textLength="50" x="52" y="369.7231">payload</text><polygon fill="#A80036" points="396,399.9219,406,403.9219,396,407.9219,400,403.9219" style="stroke: #A80036; stroke-width: 1.0;"/><line style="stroke: #A80036; stroke-width: 1.0;" x1="197" x2="402" y1="403.9219" y2="403.9219"/><text fill="#000000" font-family="sans-serif" font-size="13" lengthAdjust="spacingAndGlyphs" textLength="111" x="204" y="398.856">encrpted payload</text><polygon fill="#A80036" points="208,429.0547,198,433.0547,208,437.0547,204,433.0547" style="stroke: #A80036; stroke-width: 1.0;"/><line style="stroke: #A80036; stroke-width: 1.0;" x1="202" x2="407" y1="433.0547" y2="433.0547"/><text fill="#000000" font-family="sans-serif" font-size="13" lengthAdjust="spacingAndGlyphs" textLength="113" x="214" y="427.9888">encrpted reponse</text><line style="stroke: #A80036; stroke-width: 1.0;" x1="197" x2="239" y1="462.1875" y2="462.1875"/><line style="stroke: #A80036; stroke-width: 1.0;" x1="239" x2="239" y1="462.1875" y2="475.1875"/><line style="stroke: #A80036; stroke-width: 1.0;" x1="198" x2="239" y1="475.1875" y2="475.1875"/><polygon fill="#A80036" points="208,471.1875,198,475.1875,208,479.1875,204,475.1875" style="stroke: #A80036; stroke-width: 1.0;"/><text fill="#000000" font-family="sans-serif" font-size="13" lengthAdjust="spacingAndGlyphs" textLength="111" x="204" y="457.1216">decrypt response</text><polygon fill="#A80036" points="56,500.3203,46,504.3203,56,508.3203,52,504.3203" style="stroke: #A80036; stroke-width: 1.0;"/><line style="stroke: #A80036; stroke-width: 1.0;" x1="50" x2="196" y1="504.3203" y2="504.3203"/><text fill="#000000" font-family="sans-serif" font-size="13" lengthAdjust="spacingAndGlyphs" textLength="59" x="62" y="499.2544">response</text></g></svg>